<?xml version="1.0" standalone="no"?>
<!DOCTYPE svg PUBLIC "-//W3C//DTD SVG 20010904//EN"
 "http://www.w3.org/TR/2001/REC-SVG-20010904/DTD/svg10.dtd">
<svg version="1.0" xmlns="http://www.w3.org/2000/svg"
 width="134.000000pt" height="134.000000pt" viewBox="0 0 134.000000 134.000000"
 preserveAspectRatio="xMidYMid meet">
<metadata>
Created by potrace 1.14, written by Peter Selinger 2001-2017
</metadata>
<g transform="translate(0.000000,134.000000) scale(0.100000,-0.100000)"
fill="#000000" stroke="none">
<path d="M997 1274 c-7 -45 -48 -99 -90 -121 -18 -9 -68 -19 -112 -22 l-80 -6
0 -75 0 -75 128 -3 127 -3 0 -379 0 -380 -22 0 c-17 -1 -83 61 -245 227 l-222
228 -1 -145 0 -145 158 -158 158 -157 169 -1 c94 -1 182 0 197 0 l27 1 -1 625
-2 625 -91 0 -92 0 -6 -36z"/>
<path d="M130 570 l0 -510 115 0 115 0 1 28 c1 15 1 38 1 52 -5 246 -1 805 6
808 5 1 110 -101 235 -227 125 -126 231 -232 237 -236 7 -4 10 43 10 141 l0
148 -152 153 -152 153 -208 0 -208 0 0 -510z"/>
</g>
</svg>
